<?xml version="1.0" encoding="UTF-8"?>
<svg version="1.1" xmlns="http://www.w3.org/2000/svg" width="270" height="267">
<path d="M0 0 C0.69609375 0.60714844 0.69609375 0.60714844 1.40625 1.2265625 C1.40625 1.8865625 1.40625 2.5465625 1.40625 3.2265625 C2.06625 3.2265625 2.72625 3.2265625 3.40625 3.2265625 C5.95484711 5.69446525 8.14442426 8.49677281 10.40625 11.2265625 C10.99019531 11.90074219 11.57414063 12.57492188 12.17578125 13.26953125 C25.4155641 29.19911197 29.94394091 48.18430285 28.67236328 68.52246094 C27.37940867 81.66077768 22.07374682 93.00928497 15.40625 104.2265625 C14.41625 104.2265625 13.42625 104.2265625 12.40625 104.2265625 C10.64453125 102.35546875 10.64453125 102.35546875 8.71875 99.7890625 C5.32693346 95.33809135 1.71775761 91.3022403 -2.22265625 87.33203125 C-3.59375 85.2265625 -3.59375 85.2265625 -3.40234375 82.71484375 C-2.68963574 80.52163119 -1.93263223 78.37410101 -1.09375 76.2265625 C3.11908939 63.71256175 1.97960613 50.73485058 -3.78125 38.9765625 C-9.53862041 27.94048418 -17.66271097 19.85910292 -29.37890625 15.09375 C-31.77396039 14.34958537 -34.14001686 13.74034056 -36.59375 13.2265625 C-37.58375 12.9996875 -38.57375 12.7728125 -39.59375 12.5390625 C-52.90822619 11.1521379 -65.27354987 13.88413415 -76.59375 21.2265625 C-87.11948731 29.85353935 -94.23038299 40.15523845 -96.078125 53.8046875 C-97.25883833 70.12631297 -94.11291425 83.40147308 -83.59375 96.2265625 C-82.60375 96.7215625 -82.60375 96.7215625 -81.59375 97.2265625 C-81.59375 97.8865625 -81.59375 98.5465625 -81.59375 99.2265625 C-81.03300781 99.49597656 -80.47226563 99.76539063 -79.89453125 100.04296875 C-76.59075853 101.74253265 -73.47816714 103.73084374 -70.32421875 105.69140625 C-64.78917422 108.80338408 -60.32617261 110.44397522 -54.03442383 110.64086914 C-48.5347822 110.84438777 -44.11777732 111.05251208 -39.66796875 114.48046875 C-37.40454408 117.29118091 -35.49258055 120.16015317 -33.59375 123.2265625 C-32.25652785 124.90685475 -30.90361213 126.57484602 -29.53125 128.2265625 C-26.59375 131.85014527 -26.59375 131.85014527 -26.59375 135.2265625 C-32.25357472 137.30969243 -37.56483295 138.83873743 -43.59375 139.2265625 C-44.24472656 139.27941406 -44.89570313 139.33226562 -45.56640625 139.38671875 C-63.85591319 140.17299662 -81.61392245 132.47861882 -95.59375 121.2265625 C-96.58375 120.4840625 -97.57375 119.7415625 -98.59375 118.9765625 C-111.52788029 107.89515898 -118.30253587 92.2495509 -122.59375 76.2265625 C-122.77188232 75.59596924 -122.95001465 74.96537598 -123.13354492 74.31567383 C-127.34276603 55.20781969 -121.84654108 35.34395008 -111.59375 19.2265625 C-106.9620866 12.37761342 -102.30682451 6.10763385 -95.59375 1.2265625 C-94.67078125 0.51886719 -93.7478125 -0.18882813 -92.796875 -0.91796875 C-63.69553672 -22.31809921 -29.25218893 -19.5378426 0 0 Z " fill="#EEEEEE" transform="translate(182.59375,85.7734375)"/>
<path d="M0 0 C3.29127924 1.07934599 5.4268392 2.67530426 8.15625 4.80859375 C8.66961914 5.2053833 9.18298828 5.60217285 9.71191406 6.01098633 C10.80364944 6.85584439 11.89245465 7.70450047 12.97851562 8.55664062 C15.21838036 10.31150554 17.47614699 12.04257192 19.73364258 13.7746582 C21.38550218 15.0426672 23.03471333 16.31405802 24.68359375 17.5859375 C28.31774478 20.37960156 31.97972025 23.13359108 35.65625 25.87109375 C39.89655352 29.02837602 44.10970372 32.21655636 48.29223633 35.45019531 C53.74490523 39.66495671 59.2527054 43.77784066 64.84375 47.80859375 C67.987366 50.11391215 71.07448558 52.48416165 74.15625 54.87109375 C81.10986742 60.25059558 88.15885858 65.48678653 95.41796875 70.44921875 C96.37908569 71.114375 96.37908569 71.114375 97.35961914 71.79296875 C98.61666551 72.6617697 99.87999787 73.52156261 101.15014648 74.37109375 C105.45698436 77.36166682 105.45698436 77.36166682 106.5546875 80.16796875 C106.60496094 81.01101562 106.60496094 81.01101562 106.65625 81.87109375 C102.40775499 81.28555641 98.74670105 80.27909559 94.7734375 78.67578125 C93.62520508 78.21510254 92.47697266 77.75442383 91.29394531 77.27978516 C90.03960521 76.76882055 88.78537696 76.25758129 87.53125 75.74609375 C86.20421884 75.20983338 84.87706743 74.67387053 83.54980469 74.13818359 C74.06090985 70.29822282 64.60644146 66.37505446 55.15893555 62.43457031 C52.90189481 61.49427936 50.64345959 60.55740558 48.38476562 59.62109375 C41.40484953 56.72231234 34.44306336 53.79426011 27.5291748 50.74075317 C24.4428703 49.38162432 21.34686045 48.0455476 18.24938965 46.71209717 C16.78848935 46.07587271 15.33230539 45.42868931 13.88146973 44.76983643 C5.14885981 40.48733287 5.14885981 40.48733287 -4.23828125 40.59375 C-5.95511636 41.31827288 -7.65516657 42.08296801 -9.34375 42.87109375 C-11.27896714 43.60735614 -13.21458564 44.34265948 -15.15512085 45.06478882 C-18.92258347 46.47711518 -22.6618825 47.96138204 -26.40625 49.43359375 C-28.02546712 50.06711506 -29.64477149 50.70041342 -31.26416016 51.33349609 C-43.22370749 56.01468415 -55.15726772 60.75981493 -67.07128906 65.55566406 C-72.89935274 67.89836826 -78.73250849 70.22835005 -84.56500244 72.55999756 C-87.7674663 73.84034721 -90.96965983 75.12137225 -94.171875 76.40234375 C-96.22916667 77.22526042 -98.28645833 78.04817708 -100.34375 78.87109375 C-101.67937988 79.4424707 -101.67937988 79.4424707 -103.04199219 80.02539062 C-105.34375 80.87109375 -105.34375 80.87109375 -108.34375 80.87109375 C-107.9860526 78.34553333 -107.66628429 77.15623276 -105.7265625 75.44140625 C-104.98148438 74.96445313 -104.23640625 74.4875 -103.46875 73.99609375 C-98.27562904 70.53154019 -93.23724621 66.89686914 -88.21875 63.18359375 C-87.39753662 62.57757324 -86.57632324 61.97155273 -85.73022461 61.34716797 C-79.82142176 56.98092104 -73.94644419 52.57095124 -68.07861328 48.14990234 C-62.52994046 43.98242007 -56.89812143 39.93884675 -51.234375 35.9296875 C-49.48944129 34.68701173 -47.76358695 33.41596584 -46.078125 32.09375 C-44.34375 30.87109375 -44.34375 30.87109375 -42.34375 30.87109375 C-42.34375 30.21109375 -42.34375 29.55109375 -42.34375 28.87109375 C-40.60826831 27.42582639 -38.80399037 26.06237155 -36.96875 24.74609375 C-35.97101563 24.02164062 -34.97328125 23.2971875 -33.9453125 22.55078125 C-31.34375 20.87109375 -31.34375 20.87109375 -29.34375 20.87109375 C-29.34375 20.21109375 -29.34375 19.55109375 -29.34375 18.87109375 C-24.95913462 15.87109375 -24.95913462 15.87109375 -22.34375 15.87109375 C-22.34375 15.21109375 -22.34375 14.55109375 -22.34375 13.87109375 C-17.95913462 10.87109375 -17.95913462 10.87109375 -15.34375 10.87109375 C-15.01375 9.88109375 -14.68375 8.89109375 -14.34375 7.87109375 C-12.3828125 6.3359375 -12.3828125 6.3359375 -9.96875 4.80859375 C-9.17726563 4.30199219 -8.38578125 3.79539062 -7.5703125 3.2734375 C-6.83554688 2.81066406 -6.10078125 2.34789062 -5.34375 1.87109375 C-2.34375 -0.12890625 -2.34375 -0.12890625 0 0 Z " fill="#DC0102" transform="translate(135.34375,4.12890625)"/>
<path d="M0 0 C4.75047352 -0.12391876 9.49999961 -0.21448561 14.25170898 -0.2746582 C15.86678461 -0.29974959 17.48174726 -0.33383126 19.09643555 -0.37719727 C21.42264706 -0.43809286 23.74735359 -0.46626124 26.07421875 -0.48828125 C27.15107185 -0.52699089 27.15107185 -0.52699089 28.24967957 -0.56648254 C32.1421769 -0.5686433 33.78393256 -0.17966884 36.81445312 2.34033203 C37.53568359 3.21802246 38.25691406 4.09571289 39 5 C39.78080933 5.81053833 39.78080933 5.81053833 40.57739258 6.63745117 C41.99427002 8.14939991 43.40478482 9.66701725 44.8125 11.1875 C45.56563477 11.98704102 45.56563477 11.98704102 46.33398438 12.80273438 C50 16.76801658 50 16.76801658 50 19 C50.59296875 19.2578125 51.1859375 19.515625 51.796875 19.78125 C54.17660965 21.09769895 55.50978792 22.42580782 57.25 24.5 C58.03117187 25.41265625 58.03117187 25.41265625 58.828125 26.34375 C60 28 60 28 60 30 C60.99 30.33 61.98 30.66 63 31 C64.5078125 32.49609375 64.5078125 32.49609375 66.125 34.4375 C68.76343277 37.54963886 71.44012579 40.60837314 74.1875 43.625 C77.84202627 47.67108265 81.40250921 51.78745908 84.9375 55.9375 C93.45244434 66.16490115 93.45244434 66.16490115 102.77734375 75.61328125 C104 77 104 77 104 80 C98.85903245 80.19865521 93.72032436 80.34333226 88.57641602 80.43945312 C86.82927515 80.47953925 85.08240026 80.53402743 83.33618164 80.60351562 C68.83333983 81.16592979 68.83333983 81.16592979 64.25439453 78.25390625 C60 73.51179453 60 73.51179453 60 70 C59.34 70 58.68 70 58 70 C55 66.53846154 55 66.53846154 55 64 C54.01 63.67 53.02 63.34 52 63 C51.33333333 61.33333333 50.66666667 59.66666667 50 58 C49.01 57.67 48.02 57.34 47 57 C45.62517548 55.47047124 44.32334103 53.87477094 43.0625 52.25 C39.53569869 47.8228608 35.87513513 43.62413238 32 39.5 C28.35048016 35.60488894 24.84295585 31.66658265 21.5 27.5 C17.61763515 22.66121315 13.49472254 18.10711384 9.24804688 13.58984375 C0 3.73189876 0 3.73189876 0 0 Z " fill="#EDEDED" transform="translate(132,172)"/>
<path d="M0 0 C-1.56093056 4.39063889 -3.86235859 8.19019855 -6.3125 12.125 C-22.85424021 39.26322515 -21.50890596 62.82966114 -18.125 93.375 C-17.85209184 95.89574979 -17.57995154 98.41658284 -17.30859375 100.9375 C-16.55027874 107.95958664 -15.77785485 114.98005387 -15 122 C-14.89055054 122.98923462 -14.78110107 123.97846924 -14.66833496 124.99768066 C-14.11479315 129.99874235 -13.55893879 134.99953868 -13 140 C-13.99 140 -14.98 140 -16 140 C-19.32888494 130.87241227 -22.466514 121.6919754 -25.50024414 112.4621582 C-26.98840628 107.95328726 -28.54173203 103.48721154 -30.23193359 99.05029297 C-32.0458748 94.20811935 -33.69965353 89.30667543 -35.39453125 84.421875 C-35.68714844 83.58140625 -35.97976562 82.7409375 -36.28125 81.875 C-36.53970703 81.12992187 -36.79816406 80.38484375 -37.06445312 79.6171875 C-37.82634073 77.48581091 -38.6140792 75.36917999 -39.41577148 73.25268555 C-41.05650669 68.89234851 -42.57007797 64.49366186 -44.06640625 60.08203125 C-44.34596664 59.26175949 -44.62552704 58.44148773 -44.91355896 57.59635925 C-46.09746358 54.12256732 -47.27854875 50.64781891 -48.4597168 47.1730957 C-49.32753638 44.62153946 -50.19692508 42.07052166 -51.06640625 39.51953125 C-51.33103165 38.7392305 -51.59565704 37.95892975 -51.86830139 37.15498352 C-52.89417689 34.14583812 -53.91423021 31.19714488 -55.18334961 28.2800293 C-56.09860413 25.72470434 -56.1539483 23.69409526 -56 21 C-55.37134033 20.75878418 -54.74268066 20.51756836 -54.0949707 20.26904297 C-43.68874978 16.26569849 -33.3439335 12.28054141 -23.2734375 7.48828125 C-19.0033355 5.54686256 -14.67348909 3.78837654 -10.3125 2.0625 C-9.52061279 1.7432959 -8.72872559 1.4240918 -7.9128418 1.09521484 C-2.23714585 -1.11857292 -2.23714585 -1.11857292 0 0 Z " fill="#E9E9E9" transform="translate(63,83)"/>
<path d="M0 0 C5.01516433 0.74411991 9.54982867 2.615442 14.25 4.4375 C15.15226318 4.78441895 16.05452637 5.13133789 16.98413086 5.48876953 C24.52924894 8.40263113 32.04931143 11.37990712 39.5625 14.375 C40.63854492 14.80353271 41.71458984 15.23206543 42.82324219 15.67358398 C44.3357959 16.27988647 44.3357959 16.27988647 45.87890625 16.8984375 C46.7716626 17.25599121 47.66441895 17.61354492 48.58422852 17.98193359 C50.77534441 18.90532452 52.88863479 19.90826371 55 21 C55.1893273 24.74097496 54.69944472 27.29893773 53.21484375 30.7265625 C51.18137312 35.56374427 49.34117915 40.43920149 47.5625 45.375 C47.23467529 46.28056641 46.90685059 47.18613281 46.5690918 48.11914062 C45.816728 50.19859761 45.06524281 52.2783726 44.31445312 54.35839844 C43.08248678 57.77147607 41.84897779 61.18399133 40.61500549 64.59634399 C39.18029941 68.56403507 37.74629776 72.5319806 36.3125 76.5 C36.03673126 77.26318542 35.76096252 78.02637085 35.47683716 78.81268311 C28.86818037 97.08708252 28.86818037 97.08708252 22.4296875 115.421875 C21.578125 117.86458333 20.7265625 120.30729167 19.875 122.75 C19.66020996 123.37874023 19.44541992 124.00748047 19.22412109 124.65527344 C18.59381344 126.49741978 17.94946869 128.3347446 17.3046875 130.171875 C16.93327637 131.2453418 16.56186523 132.31880859 16.17919922 133.42480469 C15 136 15 136 12 138 C11.74645951 129.85235446 12.53911513 121.93987375 13.49609375 113.85546875 C13.65107651 112.51415459 13.80561432 111.17278895 13.95973206 109.83137512 C14.28161523 107.03991773 14.60718837 104.2489262 14.93579102 101.45825195 C15.35584257 97.89036879 15.76904074 94.32173501 16.17980862 90.75277233 C16.49799721 87.99100305 16.81850876 85.22950765 17.13984871 82.46810341 C17.36700566 80.5156074 17.59323273 78.56300328 17.81944275 76.61039734 C17.95951248 75.42178604 18.09958221 74.23317474 18.24389648 73.00854492 C18.36603012 71.96615158 18.48816376 70.92375824 18.61399841 69.84977722 C18.97263341 67.20204242 19.4708631 64.61767979 20 62 C21.59281692 41.7895034 13.40730105 23.43576951 2.8449707 6.6953125 C0 2.1799968 0 2.1799968 0 0 Z " fill="#DD0102" transform="translate(207,84)"/>
<path d="M0 0 C0.99 0 1.98 0 3 0 C4.03435556 1.64556566 5.02763513 3.3170608 6 5 C7.12910921 6.1623183 8.26457454 7.31961952 9.44140625 8.43359375 C11.43725746 10.43944923 13.22405932 12.59905765 15.0625 14.75 C38.50078443 40.86583679 74.77146274 47.97567039 108 52 C108.33 52.99 108.66 53.98 109 55 C74.02 55 39.04 55 3 55 C0.55272953 24.40911911 0.55272953 24.40911911 -0.1875 14 C-0.28224609 12.73800781 -0.37699219 11.47601563 -0.47460938 10.17578125 C-0.55904297 8.98339844 -0.64347656 7.79101562 -0.73046875 6.5625 C-0.80676514 5.51191406 -0.88306152 4.46132812 -0.96166992 3.37890625 C-0.97431885 2.59386719 -0.98696777 1.80882812 -1 1 C-0.67 0.67 -0.34 0.34 0 0 Z " fill="#F0F0F0" transform="translate(56,197)"/>
<path d="M0 0 C0.66 0.33 1.32 0.66 2 1 C-1.39184692 5.77371048 -1.39184692 5.77371048 -4.6875 7 C-5.450625 7.33 -6.21375 7.66 -7 8 C-7.89386164 10.54775306 -7.89386164 10.54775306 -8 13 C-6.02 13 -4.04 13 -2 13 C-5.82561214 16.38780366 -10.35747976 17.89742479 -15.0625 19.6875 C-15.87783203 20.00783203 -16.69316406 20.32816406 -17.53320312 20.65820312 C-23.60989139 23 -23.60989139 23 -27 23 C-26.64522135 20.38702705 -26.29616473 19.25788494 -24.27734375 17.5 C-23.50519531 17.005 -22.73304687 16.51 -21.9375 16 C-16.95026676 12.68243727 -12.153565 9.17040401 -7.375 5.5625 C-6.29013306 4.74555664 -6.29013306 4.74555664 -5.18334961 3.91210938 C-3.45448953 2.60950094 -1.72708728 1.30495801 0 0 Z " fill="#960506" transform="translate(54,62)"/>
<path d="M0 0 C8.25 0.99 16.5 1.98 25 3 C25.495 4.485 25.495 4.485 26 6 C-8.98 6 -43.96 6 -80 6 C-80 4.35 -80 2.7 -80 1 C-79.67 2.32 -79.34 3.64 -79 5 C-48.97 5 -18.94 5 12 5 C12 4.34 12 3.68 12 3 C11.30132812 2.95101562 10.60265625 2.90203125 9.8828125 2.8515625 C8.97273438 2.77679688 8.06265625 2.70203125 7.125 2.625 C6.22007812 2.55539063 5.31515625 2.48578125 4.3828125 2.4140625 C2 2 2 2 0 0 Z " fill="#9D9D9D" transform="translate(139,246)"/>
<path d="M0 0 C0.33 0 0.66 0 1 0 C1 8.25 1 16.5 1 25 C1.66 25 2.32 25 3 25 C3.12375 24.38125 3.2475 23.7625 3.375 23.125 C4 21 4 21 6 19 C5.32408568 24.17651452 3.84788003 28.85029727 2.125 33.75 C1.74021484 34.90048828 1.74021484 34.90048828 1.34765625 36.07421875 C0.96287109 37.17443359 0.96287109 37.17443359 0.5703125 38.296875 C0.34102051 38.96041992 0.11172852 39.62396484 -0.12451172 40.30761719 C-1 42 -1 42 -4 44 C-4.29935477 34.66387326 -3.1474929 25.61847887 -2 16.375 C-1.80674818 14.78261795 -1.61403554 13.19017036 -1.421875 11.59765625 C-0.95412824 7.7309874 -0.47909825 3.86527806 0 0 Z " fill="#980506" transform="translate(223,178)"/>
<path d="M0 0 C2.18396105 1.44111715 4.36277975 2.88910962 6.53515625 4.34765625 C8.05601317 5.36718474 9.5834119 6.37712261 11.12109375 7.37109375 C15.84826055 10.52581421 15.84826055 10.52581421 16.6875 13.1484375 C16.790625 13.75945312 16.89375 14.37046875 17 15 C11.11792344 14.38443385 6.03902565 12.17339219 0.625 9.9375 C-0.30183594 9.56044922 -1.22867188 9.18339844 -2.18359375 8.79492188 C-4.45802479 7.86873604 -6.72999667 6.93697332 -9 6 C-5.4850392 4.98507128 -3.70992531 5.16546864 -0.25 6.4375 C0.54921875 6.72496094 1.3484375 7.01242188 2.171875 7.30859375 C2.77515625 7.53675781 3.3784375 7.76492187 4 8 C3.67 7.34 3.34 6.68 3 6 C2.34 6 1.68 6 1 6 C0.67 4.02 0.34 2.04 0 0 Z " fill="#9A0506" transform="translate(225,71)"/>
<path d="M0 0 C4.05819183 0.65503282 7.53971282 1.94559121 11.3125 3.5625 C12.38113281 4.01753906 13.44976562 4.47257812 14.55078125 4.94140625 C15.76314453 5.46541016 15.76314453 5.46541016 17 6 C17 6.33 17 6.66 17 7 C13.37 6.67 9.74 6.34 6 6 C6.44472656 6.74765625 6.88945312 7.4953125 7.34765625 8.265625 C7.91355469 9.25046875 8.47945312 10.2353125 9.0625 11.25 C9.63097656 12.22453125 10.19945312 13.1990625 10.78515625 14.203125 C12 17 12 17 11.68359375 19.359375 C11.45800781 19.90078125 11.23242188 20.4421875 11 21 C10.45730469 20.04738281 9.91460937 19.09476563 9.35546875 18.11328125 C8.63284161 16.84633756 7.91018373 15.57941141 7.1875 14.3125 C6.83107422 13.68666016 6.47464844 13.06082031 6.10742188 12.41601562 C5.75615234 11.80048828 5.40488281 11.18496094 5.04296875 10.55078125 C4.52549072 9.64320068 4.52549072 9.64320068 3.99755859 8.71728516 C3.10670309 7.1836881 2.17509419 5.67393189 1.23828125 4.16796875 C0 2 0 2 0 0 Z " fill="#A30607" transform="translate(207,84)"/>
<path d="M0 0 C0.99 0 1.98 0 3 0 C4.03435556 1.64556566 5.02763513 3.3170608 6 5 C6.886875 5.86625 7.77375 6.7325 8.6875 7.625 C11 10 11 10 11 13 C6.125 9.25 6.125 9.25 5 7 C4.01 6.67 3.02 6.34 2 6 C2 13.92 2 21.84 2 30 C1.67 30 1.34 30 1 30 C0.69010993 25.88874113 0.3871067 21.77703959 0.09057617 17.66479492 C-0.01135447 16.26491492 -0.11519131 14.86517239 -0.22094727 13.46557617 C-0.37232338 11.4578883 -0.51635601 9.44965096 -0.66015625 7.44140625 C-0.74918213 6.23170166 -0.83820801 5.02199707 -0.92993164 3.77563477 C-0.9530542 2.85967529 -0.97617676 1.94371582 -1 1 C-0.67 0.67 -0.34 0.34 0 0 Z " fill="#707070" transform="translate(56,197)"/>
<path d="M0 0 C-0.35608086 2.74775728 -0.73843788 3.7789692 -2.890625 5.59765625 C-3.66921875 6.08105469 -4.4478125 6.56445312 -5.25 7.0625 C-6.47783203 7.83980469 -6.47783203 7.83980469 -7.73046875 8.6328125 C-9.3257139 9.59380355 -10.93827299 10.52634826 -12.5625 11.4375 C-15.74881097 13.48000703 -18.32870134 16.03509121 -21.03515625 18.671875 C-23 20 -23 20 -25.24609375 19.703125 C-25.82488281 19.47109375 -26.40367188 19.2390625 -27 19 C-22.4247728 15.30301568 -17.73382333 11.77854577 -13.01953125 8.26171875 C-11.1748931 6.88002989 -9.33711275 5.48904609 -7.51171875 4.08203125 C-6.45404297 3.26798828 -6.45404297 3.26798828 -5.375 2.4375 C-4.76398438 1.96183594 -4.15296875 1.48617187 -3.5234375 0.99609375 C-2 0 -2 0 0 0 Z " fill="#990609" transform="translate(83,42)"/>
<path d="M0 0 C0.66 0 1.32 0 2 0 C1.3717572 5.2772395 -0.32729572 9.74701042 -2.3125 14.625 C-5.12686531 21.68366219 -7.71153635 28.75082944 -10 36 C-11.0351304 32.89460881 -11.0044902 32.09768914 -10.29296875 29.05859375 C-10.11830078 28.31029297 -9.94363281 27.56199219 -9.76367188 26.79101562 C-9.57353516 26.01435547 -9.38339844 25.23769531 -9.1875 24.4375 C-8.91969727 23.26670898 -8.91969727 23.26670898 -8.64648438 22.07226562 C-7.25652813 16.25652813 -7.25652813 16.25652813 -5 14 C-4.06280898 11.6314627 -3.19516685 9.28304801 -2.375 6.875 C-2.14554688 6.21628906 -1.91609375 5.55757812 -1.6796875 4.87890625 C-1.11463758 3.25438774 -0.55663723 1.62742029 0 0 Z " fill="#A40708" transform="translate(240,161)"/>
<path d="M0 0 C0.33 0 0.66 0 1 0 C1.66 5.94 2.32 11.88 3 18 C2.01 18 1.02 18 0 18 C-0.8655047 15.73291675 -1.71759315 13.46224921 -2.5625 11.1875 C-2.80935547 10.54490234 -3.05621094 9.90230469 -3.31054688 9.24023438 C-5.11328125 4.33984375 -5.11328125 4.33984375 -4 1 C-3.67 2.65 -3.34 4.3 -3 6 C-2.34 5.67 -1.68 5.34 -1 5 C-0.34444881 2.47266765 -0.34444881 2.47266765 0 0 Z " fill="#ABABAB" transform="translate(47,205)"/>
<path d="M0 0 C8.25 0.99 16.5 1.98 25 3 C25.33 3.99 25.66 4.98 26 6 C21.38 6 16.76 6 12 6 C12 5.01 12 4.02 12 3 C11.30132812 2.95101562 10.60265625 2.90203125 9.8828125 2.8515625 C8.97273437 2.77679688 8.06265625 2.70203125 7.125 2.625 C6.22007812 2.55539063 5.31515625 2.48578125 4.3828125 2.4140625 C2 2 2 2 0 0 Z " fill="#939393" transform="translate(139,246)"/>
<path d="M0 0 C0.33 0 0.66 0 1 0 C1 5.28 1 10.56 1 16 C1.99 14.02 2.98 12.04 4 10 C5.31622874 13.94868623 4.30180315 15.35071376 2.6875 19.125 C2.01267578 20.73761719 2.01267578 20.73761719 1.32421875 22.3828125 C0 25 0 25 -2 26 C-2.38064163 17.20294908 -1.20731692 8.68836995 0 0 Z " fill="#610505" transform="translate(221,196)"/>
<path d="M0 0 C0.33 0 0.66 0 1 0 C1.38188447 12.0930081 0.43094304 23.1601738 -2 35 C-2.34277547 36.99840339 -2.67978169 38.99785831 -3 41 C-3.33 41 -3.66 41 -4 41 C-3.26443532 27.27791414 -1.56953744 13.64596893 0 0 Z " fill="#6F0404" transform="translate(228,134)"/>
<path d="M0 0 C4.77480084 0.48972316 8.47893442 2.0206547 12.765625 4.02734375 C15.19186735 5.14785965 15.19186735 5.14785965 18.6875 6 C22.47209516 7.14251929 24.83102266 8.6812361 28 11 C26 12 26 12 23.6015625 11.22729492 C22.61929688 10.81584229 21.63703125 10.40438965 20.625 9.98046875 C19.55765625 9.53509766 18.4903125 9.08972656 17.390625 8.63085938 C15.71226562 7.91639648 15.71226562 7.91639648 14 7.1875 C12.88109375 6.72279297 11.7621875 6.25808594 10.609375 5.77929688 C2.26880214 2.26880214 2.26880214 2.26880214 0 0 Z " fill="#840606" transform="translate(149,48)"/>
<path d="M0 0 C20.765625 5.765625 20.765625 5.765625 24 9 C24.04063832 10.66617115 24.042721 12.33388095 24 14 C23.01 14.495 23.01 14.495 22 15 C22.00644531 14.23816406 22.01289063 13.47632812 22.01953125 12.69140625 C21.30832718 9.94741394 21.30832718 9.94741394 19.38818359 9.08935547 C17.17308699 8.28496151 14.95187373 7.59057739 12.6875 6.9375 C3.32998045 4.15131612 3.32998045 4.15131612 0 0 Z " fill="#7B0608" transform="translate(238,96)"/>
<path d="M0 0 C0.66 0.33 1.32 0.66 2 1 C1.67 1.66 1.34 2.32 1 3 C4.465 2.505 4.465 2.505 8 2 C5.75848118 4.24151882 3.9932888 4.96301325 1.0625 6.125 C0.18722656 6.47820312 -0.68804687 6.83140625 -1.58984375 7.1953125 C-4 8 -4 8 -7 8 C-6.875 6.25 -6.875 6.25 -6 4 C-2.9375 1.75 -2.9375 1.75 0 0 Z " fill="#830708" transform="translate(34,77)"/>
<path d="M0 0 C4.80549747 -0.02468447 9.61095818 -0.04285255 14.41650391 -0.05493164 C16.05192711 -0.05996621 17.6873458 -0.06679427 19.32275391 -0.07543945 C21.67090975 -0.08754335 24.01900619 -0.093237 26.3671875 -0.09765625 C27.10057343 -0.10281754 27.83395935 -0.10797882 28.58956909 -0.11329651 C33.77225659 -0.11387171 33.77225659 -0.11387171 36 1 C36 1.66 36 2.32 36 3 C34.68 3 33.36 3 32 3 C32 2.34 32 1.68 32 1 C22.1 1.33 12.2 1.66 2 2 C1.67 2.66 1.34 3.32 1 4 C0.67 2.68 0.34 1.36 0 0 Z " fill="#777777" transform="translate(132,172)"/>
<path d="M0 0 C4.6509136 2.94557861 5.53554948 6.15924197 6.8515625 11.375 C7.10679687 12.57125 7.36203125 13.7675 7.625 15 C7.88539063 16.19625 8.14578125 17.3925 8.4140625 18.625 C8.91618463 21.51722349 9.12174011 24.07823745 9 27 C6.9605316 23.9407974 6.4099678 21.97909003 5.625 18.4375 C4.42621748 13.37802299 2.82966145 8.72932875 0.76953125 3.9609375 C0 2 0 2 0 0 Z " fill="#7B0506" transform="translate(219,105)"/>
<path d="M0 0 C-5.86590564 2.45924567 -11.73550972 4.91020791 -17.625 7.3125 C-18.42164062 7.63863281 -19.21828125 7.96476562 -20.0390625 8.30078125 C-22 9 -22 9 -24 9 C-24 8.34 -24 7.68 -24 7 C-23.43410156 6.89042969 -22.86820312 6.78085937 -22.28515625 6.66796875 C-21.18494141 6.43013672 -21.18494141 6.43013672 -20.0625 6.1875 C-19.33160156 6.03667969 -18.60070312 5.88585938 -17.84765625 5.73046875 C-17.23792969 5.48941406 -16.62820312 5.24835937 -16 5 C-15.67 4.01 -15.34 3.02 -15 2 C-12.69 2 -10.38 2 -8 2 C-8 1.34 -8 0.68 -8 0 C-2.25 -1.125 -2.25 -1.125 0 0 Z " fill="#870505" transform="translate(115,51)"/>
<path d="M0 0 C7.00000223 0.38888901 11.89433831 2.67241438 18 6 C19.20544958 6.60990009 20.41325667 7.21520199 21.625 7.8125 C22.40875 8.204375 23.1925 8.59625 24 9 C22 10 22 10 19.75341797 9.28735352 C18.84221191 8.90506592 17.93100586 8.52277832 16.9921875 8.12890625 C16.00605469 7.71962891 15.01992187 7.31035156 14.00390625 6.88867188 C12.97136719 6.45103516 11.93882812 6.01339844 10.875 5.5625 C9.83472656 5.12873047 8.79445312 4.69496094 7.72265625 4.24804688 C5.14546243 3.17224578 2.57150805 2.08930622 0 1 C0 0.67 0 0.34 0 0 Z " fill="#8C0607" transform="translate(182,62)"/>
<path d="M0 0 C0.66 0.33 1.32 0.66 2 1 C-1.42066436 6.05663427 -5.91002391 8.83507897 -11 12 C-11.66 11.67 -12.32 11.34 -13 11 C-9.0299782 6.78185183 -4.69159716 3.38772897 0 0 Z " fill="#929292" transform="translate(95,81)"/>
<path d="M0 0 C0.66 0.99 1.32 1.98 2 3 C0.515 2.6596875 0.515 2.6596875 -1 2.3125 C-4.96197762 1.70854 -7.62678312 2.74682737 -11.203125 4.40625 C-13 5 -13 5 -16 4 C-15.34 4 -14.68 4 -14 4 C-14 3.34 -14 2.68 -14 2 C-12.35 2 -10.7 2 -9 2 C-9 1.34 -9 0.68 -9 0 C-5.46474216 -1.17841928 -3.5797952 -0.91399027 0 0 Z " fill="#920506" transform="translate(139,42)"/>
<path d="M0 0 C1.11375 0.3403125 1.11375 0.3403125 2.25 0.6875 C1.75 2.625 1.75 2.625 0.25 4.6875 C-2.44658452 5.37540422 -4.9517019 5.50696464 -7.75 5.6875 C-6.3502077 1.48812309 -4.58927239 -0.52150823 0 0 Z " fill="#D60406" transform="translate(42.75,74.3125)"/>
<path d="M0 0 C-3.03794555 2.51242417 -5.91438973 3.88228534 -9.625 5.1875 C-11.06746094 5.70376953 -11.06746094 5.70376953 -12.5390625 6.23046875 C-15 7 -15 7 -17 7 C-17 6.01 -17 5.02 -17 4 C-16.30132812 3.79503906 -15.60265625 3.59007812 -14.8828125 3.37890625 C-13.97273438 3.10949219 -13.06265625 2.84007812 -12.125 2.5625 C-11.22007813 2.29566406 -10.31515625 2.02882812 -9.3828125 1.75390625 C-3.54456193 -0.09327795 -3.54456193 -0.09327795 0 0 Z " fill="#850607" transform="translate(90,60)"/>
<path d="M0 0 C0.66 0.33 1.32 0.66 2 1 C1.52695318 5.25742137 -0.8863822 7.25705098 -4 10 C-4.99 10.33 -5.98 10.66 -7 11 C-5.5140084 6.40693504 -3.14985318 3.56430755 0 0 Z " fill="#919191" transform="translate(80,93)"/>
<path d="M0 0 C2.9375 1.25 2.9375 1.25 6 3 C6.875 5.1875 6.875 5.1875 7 7 C3.0507432 6.44894091 -0.34920174 5.61064629 -4 4 C-2.68 3.34 -1.36 2.68 0 2 C0 1.34 0 0.68 0 0 Z " fill="#690507" transform="translate(235,79)"/>
<path d="M0 0 C1.23612866 3.70838597 0.57524139 4.79531374 -0.8125 8.375 C-1.34810547 9.77878906 -1.34810547 9.77878906 -1.89453125 11.2109375 C-2.92446203 13.80942011 -3.95784291 16.40639639 -5 19 C-6.62106022 14.13681934 -4.59930663 9.74253263 -3 5 C-1.3125 1.8125 -1.3125 1.8125 0 0 Z " fill="#730406" transform="translate(235,178)"/>
<path d="M0 0 C0.66 0.33 1.32 0.66 2 1 C0.92598892 3.91517292 0.22189824 5.77810176 -2 8 C-2.33 7.01 -2.66 6.02 -3 5 C-5.31 5 -7.62 5 -10 5 C-6.76527494 2.84351662 -3.62848922 1.38542316 0 0 Z " fill="#7F7F7F" transform="translate(61,82)"/>
<path d="M0 0 C3.03852705 1.40976705 5.5939595 3.08870228 8.25 5.125 C8.95640625 5.66382813 9.6628125 6.20265625 10.390625 6.7578125 C10.92171875 7.16773438 11.4528125 7.57765625 12 8 C8.89953913 9.03348696 7.94389782 9.17755913 5 8 C4.67 7.01 4.34 6.02 4 5 C2.67151309 3.99357052 1.33849671 2.99307821 0 2 C0 1.34 0 0.68 0 0 Z " fill="#990508" transform="translate(192,47)"/>
<path d="M0 0 C0.66 0.33 1.32 0.66 2 1 C0.95600254 2.34786992 -0.11102066 3.67792729 -1.1875 5 C-1.77917969 5.7425 -2.37085937 6.485 -2.98046875 7.25 C-5 9 -5 9 -7.73828125 9.25 C-8.48464844 9.1675 -9.23101562 9.085 -10 9 C-10 8.34 -10 7.68 -10 7 C-5.61538462 4 -5.61538462 4 -3 4 C-3 3.34 -3 2.68 -3 2 C-2.01 1.34 -1.02 0.68 0 0 Z " fill="#890406" transform="translate(116,16)"/>
<path d="M0 0 C0.66 0.33 1.32 0.66 2 1 C-3.0940919 7.86214442 -3.0940919 7.86214442 -6.875 8.4375 C-7.57625 8.293125 -8.2775 8.14875 -9 8 C-8.34 7.67 -7.68 7.34 -7 7 C-6.67 6.01 -6.34 5.02 -6 4 C-4.04402816 2.60287726 -2.04563599 1.26220093 0 0 Z " fill="#9A0506" transform="translate(127,8)"/>
<path d="M0 0 C0.33 0 0.66 0 1 0 C1.66 5.94 2.32 11.88 3 18 C2.01 18 1.02 18 0 18 C-0.33 16.68 -0.66 15.36 -1 14 C-0.67 14 -0.34 14 0 14 C0 9.38 0 4.76 0 0 Z " fill="#444444" transform="translate(47,205)"/>
<path d="M0 0 C4.59621922 1.4870121 7.46972347 3.79812128 11 7 C11 7.33 11 7.66 11 8 C9.02 8 7.04 8 5 8 C4.896875 7.360625 4.79375 6.72125 4.6875 6.0625 C4.3471875 5.0415625 4.3471875 5.0415625 4 4 C3.01 3.67 2.02 3.34 1 3 C0.67 2.01 0.34 1.02 0 0 Z " fill="#930406" transform="translate(156,20)"/>
<path d="M0 0 C0 3.48123131 -0.41151304 3.86520636 -2.75 6.25 C-3.26046875 6.79140625 -3.7709375 7.3328125 -4.296875 7.890625 C-6 9 -6 9 -8.203125 8.671875 C-8.79609375 8.45015625 -9.3890625 8.2284375 -10 8 C-6.66666667 5.33333333 -3.33333333 2.66666667 0 0 Z " fill="#830505" transform="translate(66,53)"/>
<path d="M0 0 C4.99911924 0.47610659 7.97832683 2.03162219 12 5 C10 6 10 6 7.87109375 5.29296875 C7.06800781 4.92816406 6.26492187 4.56335937 5.4375 4.1875 C4.63183594 3.83042969 3.82617188 3.47335938 2.99609375 3.10546875 C1 2 1 2 0 0 Z " fill="#A40508" transform="translate(165,54)"/>
<path d="M0 0 C-4.05808065 2.7053871 -8.04889399 5 -13 5 C-13 4.34 -13 3.68 -13 3 C-4.57142857 -0.42857143 -4.57142857 -0.42857143 0 0 Z " fill="#880807" transform="translate(65,70)"/>
<path d="M0 0 C0.66 0.33 1.32 0.66 2 1 C1.360625 1.2475 0.72125 1.495 0.0625 1.75 C-2.18741541 2.81562433 -2.18741541 2.81562433 -2.75 5.125 C-2.8325 5.74375 -2.915 6.3625 -3 7 C-5.31 7.66 -7.62 8.32 -10 9 C-8.37660195 7.29115995 -6.70680947 5.62553283 -5 4 C-4.34 4 -3.68 4 -3 4 C-3 3.34 -3 2.68 -3 2 C-2.01 1.34 -1.02 0.68 0 0 Z " fill="#8C0606" transform="translate(96,31)"/>
<path d="M0 0 C1.65 0.33 3.3 0.66 5 1 C5 1.66 5 2.32 5 3 C0.38 3 -4.24 3 -9 3 C-9 2.67 -9 2.34 -9 2 C-4.545 1.505 -4.545 1.505 0 1 C0 0.67 0 0.34 0 0 Z " fill="#787878" transform="translate(160,249)"/>
<path d="M0 0 C0.66 0 1.32 0 2 0 C1.54965877 1.62723299 1.08944646 3.25173664 0.625 4.875 C0.36976563 5.77992187 0.11453125 6.68484375 -0.1484375 7.6171875 C-1 10 -1 10 -3 12 C-3.34833144 7.12335991 -2.41685712 4.22949995 0 0 Z " fill="#7C0609" transform="translate(258,113)"/>
<path d="M0 0 C0.66 0.99 1.32 1.98 2 3 C0.02 3.99 0.02 3.99 -2 5 C-1.67 5.99 -1.34 6.98 -1 8 C-2.98 8.99 -2.98 8.99 -5 10 C-3.84414715 6.08788267 -2.64465038 3.1254959 0 0 Z " fill="#8E8E8E" transform="translate(72,104)"/>
<path d="M0 0 C3.37462715 0.54723683 5.08235 1.0549 8 3 C6.35 3 4.7 3 3 3 C3.33 4.32 3.66 5.64 4 7 C1.49962266 4.82575883 0.56371414 3.26954202 0 0 Z " fill="#600507" transform="translate(207,84)"/>
<path d="M0 0 C-1.2363168 0.89422914 -2.48971562 1.76487891 -3.75 2.625 C-4.44609375 3.11226563 -5.1421875 3.59953125 -5.859375 4.1015625 C-8 5 -8 5 -10.265625 4.1484375 C-10.83796875 3.76945312 -11.4103125 3.39046875 -12 3 C-10.3789897 2.30314502 -8.75303934 1.61777139 -7.125 0.9375 C-6.22007813 0.55464844 -5.31515625 0.17179687 -4.3828125 -0.22265625 C-2 -1 -2 -1 0 0 Z " fill="#898989" transform="translate(112,75)"/>
<path d="M0 0 C0.66 0 1.32 0 2 0 C1.54965877 1.62723299 1.08944646 3.25173664 0.625 4.875 C0.36976563 5.77992188 0.11453125 6.68484375 -0.1484375 7.6171875 C-1 10 -1 10 -3 12 C-3.33 10.68 -3.66 9.36 -4 8 C-3.34 7.67 -2.68 7.34 -2 7 C-1.26924352 4.6859378 -0.59861742 2.35171131 0 0 Z " fill="#848484" transform="translate(206,167)"/>
<path d="M0 0 C3 1 3 1 4.75 3.8125 C6.05483179 7.13982105 6.02866653 7.79584277 5 11 C4.16151196 9.54462432 3.32936066 8.08559627 2.5 6.625 C1.80390625 5.40683594 1.80390625 5.40683594 1.09375 4.1640625 C0 2 0 2 0 0 Z " fill="#780507" transform="translate(213,94)"/>
<path d="M0 0 C1.13643966 3.40931897 0.86747764 4.00335456 -0.4375 7.1875 C-0.86869141 8.26064453 -0.86869141 8.26064453 -1.30859375 9.35546875 C-1.53675781 9.89816406 -1.76492187 10.44085938 -2 11 C-2.33 11 -2.66 11 -3 11 C-3.36923077 3.49230769 -3.36923077 3.49230769 -1.5 1 C-1.005 0.67 -0.51 0.34 0 0 Z " fill="#900706" transform="translate(245,150)"/>
<path d="M0 0 C0.66 0.33 1.32 0.66 2 1 C1.34 1.66 0.68 2.32 0 3 C-0.39764263 4.98821313 -0.73775349 6.98944339 -1 9 C-3.1519437 5.77208445 -3.20086443 4.71599191 -3 1 C-2.01 0.67 -1.02 0.34 0 0 Z " fill="#7A7A7A" transform="translate(10,103)"/>
<path d="M0 0 C0.66 0 1.32 0 2 0 C2 0.66 2 1.32 2 2 C3.65 1.67 5.3 1.34 7 1 C4.4345406 3.5654594 2.52313332 3.54046087 -1 4 C-0.67 2.68 -0.34 1.36 0 0 Z " fill="#550606" transform="translate(28,81)"/>
</svg>
