<svg width="41" height="60" viewBox="0 0 41 60" fill="none" xmlns="http://www.w3.org/2000/svg">
<path fill-rule="evenodd" clip-rule="evenodd" d="M26.4252 22.1075C27.3758 22.3814 28.3749 21.8497 28.6649 20.8992C28.9711 19.852 29.1322 18.7565 29.1322 17.6449C29.1322 11.3296 23.992 6.1742 17.6593 6.1742C11.3428 6.1742 6.18639 11.3135 6.18639 17.6449C6.18639 19.0465 6.4281 20.4159 6.92762 21.7047C7.20156 22.4297 7.87832 22.8647 8.60343 22.8647C8.8129 22.8647 9.0224 22.8325 9.23186 22.7519C10.1665 22.3975 10.6337 21.3664 10.2793 20.432C9.94087 19.5459 9.7636 18.6115 9.7636 17.6449C9.7636 13.3111 13.2925 9.76684 17.6432 9.76684C21.9778 9.76684 25.5228 13.295 25.5228 17.6449C25.5228 18.4021 25.41 19.1593 25.2005 19.8842C24.9266 20.8348 25.4744 21.8336 26.4251 22.1075L26.4252 22.1075Z" fill="#A49C9C"/>
<path fill-rule="evenodd" clip-rule="evenodd" d="M40.0408 36.024C40.0408 35.9463 40.0279 35.8686 40.002 35.7909C39.4194 33.2663 37.7365 31.6868 35.6134 31.6868C34.992 31.6868 34.3965 31.8163 33.8528 32.0493C33.2702 30.2886 31.6132 29.0068 29.6584 29.0068C28.9334 29.0068 28.2473 29.1881 27.6518 29.4988C26.9269 28.0488 25.4252 27.0648 23.7034 27.0648C23.1597 27.0648 22.6419 27.1684 22.1629 27.3367V21.9508C22.1629 19.5168 20.1822 17.523 17.7355 17.523C15.3017 17.523 13.308 19.5039 13.308 21.9508V40.4129L11.7028 37.6294C11.1073 36.5548 10.1623 35.8168 9.02304 35.532C7.92264 35.2601 6.7446 35.4543 5.77368 36.0628C4.14253 37.0985 3.6247 39.416 4.44028 41.9406C4.44028 41.9536 4.45323 41.9665 4.45323 41.9795C4.62152 42.4844 8.77707 54.253 13.7223 59.1857C14.0071 59.4706 14.3696 59.613 14.745 59.613C15.1204 59.613 15.4829 59.4706 15.7677 59.1857C16.3373 58.6161 16.3244 57.7098 15.7677 57.1401C11.3662 52.7512 7.36599 41.5263 7.18475 41.0344C6.82228 39.895 6.88701 38.7816 7.32717 38.4968C7.62491 38.3155 7.97445 38.2508 8.31104 38.3285C8.67353 38.4191 8.95832 38.6651 9.17839 39.0535L13.4893 46.5238C13.8129 47.0935 14.4861 47.3653 15.1075 47.197C15.7418 47.0287 16.182 46.4591 16.182 45.7988V21.9638C16.182 21.1222 16.8681 20.4231 17.7225 20.4231C18.564 20.4231 19.2631 21.1093 19.2631 21.9638V38.4968C19.2631 39.2995 19.9103 39.9339 20.7 39.9339C21.5026 39.9339 22.137 39.2865 22.137 38.4968V31.3631C22.137 31.3502 22.1499 31.3372 22.1499 31.3243C22.2276 30.5475 22.8878 29.9519 23.6775 29.9519C24.519 29.9519 25.218 30.6381 25.218 31.4926V33.4476V34.9882V39.0276C25.218 39.8303 25.8653 40.4647 26.655 40.4647C27.4576 40.4647 28.092 39.8174 28.092 39.0276V34.9882V33.4476C28.092 32.606 28.7781 31.9069 29.6325 31.9069C30.474 31.9069 31.173 32.5931 31.173 33.4476V35.3766C31.173 35.4673 31.186 35.5579 31.1989 35.6485C31.186 35.8039 31.173 35.9592 31.173 36.1275V39.0406C31.173 39.8433 31.8203 40.4777 32.61 40.4777C33.3997 40.4777 34.047 39.8303 34.047 39.0406V36.1275C34.047 35.286 34.7331 34.5869 35.5875 34.5869C36.5584 34.5869 36.9856 35.7392 37.128 36.3347C37.2057 37.7459 37.8659 50.8739 35.4062 56.9071C35.1085 57.6451 35.458 58.4866 36.1959 58.7844C36.3772 58.8621 36.5584 58.888 36.7397 58.888C37.3093 58.888 37.853 58.5514 38.0731 57.9946C40.947 51.0293 40.0796 36.6325 40.0408 36.024V36.024Z" fill="#DF0002"/>
<path fill-rule="evenodd" clip-rule="evenodd" d="M3.56165 26.671C3.83563 26.671 4.1257 26.6066 4.38357 26.4776C5.26995 26.0264 5.60839 24.9467 5.15714 24.0603C4.12572 22.062 3.60999 19.9187 3.60999 17.6464C3.60999 9.89487 9.91138 3.59374 17.6632 3.59374C25.415 3.59374 31.7164 9.89487 31.7164 17.6464C31.7164 18.8712 31.5553 20.0798 31.2491 21.2562C30.9912 22.2232 31.5714 23.2062 32.5222 23.4479C33.4892 23.7058 34.4723 23.1256 34.714 22.1748C35.1008 20.7083 35.2942 19.1935 35.2942 17.6464C35.2942 7.91268 27.3812 1.00002e-05 17.6471 1.00002e-05C7.91299 1.00002e-05 -1.38118e-05 7.91268 -1.38118e-05 17.6464C-1.38118e-05 20.4344 0.676857 23.2223 1.93391 25.688C2.27235 26.3165 2.90088 26.671 3.56164 26.671L3.56165 26.671Z" fill="#A49C9C"/>
</svg>
