<svg width="74" height="68" viewBox="0 0 74 68" fill="none" xmlns="http://www.w3.org/2000/svg">
<path fill-rule="evenodd" clip-rule="evenodd" d="M60.4333 65.3644V19.6861H70.3V65.3644H60.4333ZM41.9333 65.3644V29.5625H51.8V65.3644H41.9333ZM23.4333 65.3644V39.4389H33.3V65.3644H23.4333ZM4.93333 65.3644V50.5498H14.8V65.3644H4.93333ZM72.7666 65.3644V17.217H57.9667V65.3644H54.2667V27.0934H39.4667V65.3644H35.7667V36.9698H20.9667V65.3644H17.2667V48.0807H2.46666V65.3644H1.23333C0.55253 65.3644 0 65.9162 0 66.5989C0 67.2817 0.55253 67.8335 1.23333 67.8335H2.46666H17.2667H20.9667H35.7667H39.4667H54.2667H57.9667H72.7666C73.4475 67.8335 74 67.2817 74 66.5989C74 65.9162 73.4475 65.3644 72.7666 65.3644Z" fill="#DF0002"/>
<path fill-rule="evenodd" clip-rule="evenodd" d="M9.87899 31.1509C10.0868 31.1509 10.2996 31.098 10.4927 30.9861L55.0961 5.23417L52.3044 11.3708C52.0228 11.9894 52.2958 12.7187 52.9144 12.9991C53.0792 13.0753 53.2526 13.1098 53.4235 13.1098C53.8909 13.1098 54.3373 12.8417 54.5439 12.3891L58.9244 2.75982C58.938 2.72908 58.9355 2.69587 58.9466 2.6639C58.9699 2.59872 58.9884 2.536 59.0007 2.46714C59.0068 2.43271 59.0265 2.40441 59.0289 2.36875C59.0302 2.35399 59.024 2.3417 59.0253 2.32694C59.0277 2.28021 59.0228 2.23717 59.0204 2.19043C59.0167 2.12279 59.0056 2.05884 58.9908 1.99121C58.981 1.94448 58.9785 1.89652 58.9626 1.85102C58.9478 1.80675 58.922 1.76985 58.9023 1.7268C58.8863 1.69852 58.8863 1.66531 58.8691 1.6358C58.8519 1.60629 58.8224 1.58907 58.8027 1.56078C58.7769 1.52266 58.7572 1.48207 58.7264 1.44764C58.6945 1.41075 58.6539 1.38492 58.617 1.35172C58.5666 1.30622 58.5162 1.26441 58.4596 1.22751C58.4215 1.20291 58.387 1.17586 58.3452 1.15495C58.3317 1.1488 58.3243 1.1365 58.3108 1.13035C58.28 1.11682 58.2468 1.11928 58.2161 1.10821C58.1484 1.08361 58.082 1.0664 58.0119 1.0541C57.98 1.04795 57.9541 1.02949 57.9209 1.02703L47.3914 0.00631009C46.7089 -0.0625609 46.1137 0.436736 46.0485 1.11067C45.9821 1.78706 46.4777 2.38842 47.1529 2.45361L53.8626 3.10416L9.26289 28.8561C8.67382 29.1955 8.47336 29.9481 8.81278 30.536C9.0403 30.9307 9.4535 31.1509 9.87902 31.1509H9.87899Z" fill="white"/>
</svg>
